<mxfile host="app.diagrams.net" modified="2024-05-21T20:45:56.144Z" agent="Mozilla/5.0 (Windows NT 10.0; Win64; x64) AppleWebKit/537.36 (KHTML, like Gecko) Chrome/125.0.0.0 Safari/537.36" etag="GLesLg6u00kySS85i2xb" version="24.4.4" type="github">
  <diagram name="Phase01" id="6uA1fQvNX1fIbqmeOwzg">
    <mxGraphModel dx="2333" dy="1238" grid="1" gridSize="10" guides="1" tooltips="1" connect="1" arrows="1" fold="1" page="0" pageScale="1" pageWidth="827" pageHeight="1169" math="0" shadow="0">
      <root>
        <mxCell id="0" />
        <mxCell id="1" parent="0" />
      </root>
    </mxGraphModel>
  </diagram>
</mxfile>
